<?xml version="1.0" encoding="UTF-8"?>
<svg width="348px" height="445px" viewBox="0 0 348 445" version="1.1" xmlns="http://www.w3.org/2000/svg" xmlns:xlink="http://www.w3.org/1999/xlink">
    <title>LogoKNHrgb</title>
    <defs>
        <polygon id="path-1" points="0 0.937 347.887 0.937 347.887 398.109 0 398.109"></polygon>
        <polygon id="path-3" points="0.545 0.377 251.305258 0.377 251.305258 316.94 0.545 316.94"></polygon>
    </defs>
    <g id="LogoKNHrgb" stroke="none" stroke-width="1" fill="none" fill-rule="evenodd">
        <g id="Group-3">
            <mask id="mask-2" fill="white">
                <use xlink:href="#path-1"></use>
            </mask>
            <g id="Clip-2"></g>
            <path d="M334.543,0.937 L85.894,0.937 C77.111,0.937 68.636,8.004 67.061,16.633 L63.576,35.708 L63.549,35.703 L53.64,89.915 C58.748,89.219 64.558,89.587 68.964,91.551 C68.964,91.551 73.364,93.42 75.681,94.774 L70.212,105.944 C65.216,103.336 64.313,103.163 64.313,103.163 C61.238,101.976 57.683,101.722 54.214,102.524 C53.255,102.74 52.07,103.219 51.138,103.602 L46.609,128.377 L78.226,212.6 L64.398,212.6 L42.048,153.331 L28.486,227.524 L28.539,227.534 L0.252,382.408 C-1.313,391.038 4.566,398.109 13.349,398.109 L261.999,398.109 C270.782,398.109 279.247,391.038 280.831,382.408 L347.632,16.633 C349.207,8.004 343.326,0.937 334.543,0.937" id="Fill-1" fill="#264D84" mask="url(#mask-2)"></path>
        </g>
        <path d="M64.313,103.163 C64.313,103.163 65.216,103.336 70.212,105.944 L75.681,94.774 C73.364,93.42 68.964,91.551 68.964,91.551 C64.558,89.587 58.748,89.219 53.64,89.915 L51.138,103.602 C52.07,103.219 53.255,102.74 54.214,102.524 C57.683,101.722 61.238,101.976 64.313,103.163" id="Fill-4" fill="#FFFFFE"></path>
        <g id="Group-16" transform="translate(7.000000, 128.000000)">
            <mask id="mask-4" fill="white">
                <use xlink:href="#path-3"></use>
            </mask>
            <g id="Clip-6"></g>
            <polyline id="Fill-5" fill="#FFFFFE" mask="url(#mask-4)" points="71.226 84.6 39.609 0.377 35.048 25.331 57.398 84.6 71.226 84.6"></polyline>
            <path d="M7.262,286.02 L11.845,286.02 L17.148,308.659 C17.226,309.082 17.36,309.898 17.437,311.358 C17.408,311.667 17.428,311.927 17.437,312.233 L17.523,311.33 L17.658,310.158 L17.84,308.562 L17.898,308.353 L22.76,286.02 L26.45,286.02 L19.725,317 L15.102,317 L9.827,294.718 L9.789,294.535 L9.635,293.036 L9.539,291.864 L9.461,290.96 C9.433,291.268 9.443,291.612 9.376,291.911 C9.251,293.334 9.116,294.361 8.933,295.142 L4.197,317 L0.545,317 L7.262,286.02" id="Fill-7" fill="#BB243D" mask="url(#mask-4)"></path>
            <polyline id="Fill-8" fill="#BB243D" mask="url(#mask-4)" points="38.96 286.02 54.008 286.02 53.335 289.039 42.438 289.597 40.306 299.434 49.838 299.434 49.165 302.548 39.595 302.548 37.25 313.339 48.147 313.905 47.483 317 32.235 317 38.96 286.02"></polyline>
            <path d="M66.748,313.694 C71.293,313.694 73.754,311.283 75.848,303.327 C76.203,301.857 76.529,300.474 76.722,299.146 C77.847,291.691 76.395,289.327 72.265,289.327 L69.036,289.327 L63.77,313.694 L66.748,313.694 Z M65.538,286.02 L73.1,286.02 C81.276,286.02 84.717,292.219 79.096,307.151 C76.588,313.83 72.33,317 66.057,317 L58.822,317 L65.538,286.02 L65.538,286.02 Z" id="Fill-9" fill="#BB243D" mask="url(#mask-4)"></path>
            <polyline id="Fill-10" fill="#BB243D" mask="url(#mask-4)" points="95.861 286.02 110.919 286.02 110.256 289.039 99.341 289.597 97.208 299.434 106.748 299.434 106.076 302.548 96.506 302.548 94.161 313.339 105.058 313.905 104.386 317 89.155 317 95.861 286.02"></polyline>
            <path d="M125.515,299.483 C129.31,299.396 131.27,298.157 132.346,295.398 C133.894,291.393 132.49,289.115 128.704,289.163 L125.966,289.213 L123.708,299.531 L125.515,299.483 Z M122.459,286.02 L130.186,286.02 C130.664,286.02 131.184,286.061 131.654,286.099 C136.795,286.666 138.89,290.44 136.488,295.957 C134.988,299.358 131.943,301.511 128.148,301.731 C127.783,301.76 127.379,301.76 126.975,301.731 L134.912,317 L129.934,317 L123.094,302.499 L119.922,317 L115.732,317 L122.459,286.02 L122.459,286.02 Z" id="Fill-11" fill="#BB243D" mask="url(#mask-4)"></path>
            <polyline id="Fill-12" fill="#BB243D" mask="url(#mask-4)" points="150.852 286.02 155.071 286.02 149.152 313.339 159.068 313.944 158.395 317 144.127 317 150.852 286.02"></polyline>
            <path d="M182.242,303.105 L181.973,292.652 C181.935,292.085 181.985,291.094 182.119,290.019 C182.147,289.634 182.187,289.25 182.263,288.856 C182.032,289.672 181.752,290.537 181.436,291.345 L181.186,292.037 L180.936,292.652 L176.093,303.105 L182.242,303.105 Z M180.342,286.02 L185.395,286.02 L186.875,317 L182.531,317 L182.204,306.296 L174.766,306.296 L169.791,317 L165.439,317 L180.342,286.02 L180.342,286.02 Z" id="Fill-13" fill="#BB243D" mask="url(#mask-4)"></path>
            <path d="M203.295,286.02 L207.878,286.02 L213.184,308.659 C213.259,309.082 213.394,309.898 213.473,311.358 C213.441,311.667 213.462,311.927 213.473,312.233 L213.548,311.33 L213.691,310.158 L213.865,308.562 L213.924,308.353 L218.784,286.02 L222.482,286.02 L215.758,317 L211.128,317 L205.861,294.718 L205.822,294.535 L205.668,293.036 L205.572,291.864 L205.485,290.96 C205.457,291.268 205.466,291.612 205.398,291.911 C205.283,293.334 205.149,294.361 204.958,295.142 L200.23,317 L196.578,317 L203.295,286.02" id="Fill-14" fill="#BB243D" mask="url(#mask-4)"></path>
            <path d="M236.204,313.694 C240.739,313.694 243.199,311.283 245.294,303.327 C245.649,301.857 245.979,300.474 246.168,299.146 C247.293,291.691 245.852,289.327 241.701,289.327 L238.493,289.327 L233.227,313.694 L236.204,313.694 Z M234.993,286.02 L242.545,286.02 C250.714,286.02 254.173,292.219 248.541,307.151 C246.045,313.83 241.777,317 235.504,317 L228.269,317 L234.993,286.02 L234.993,286.02 Z" id="Fill-15" fill="#BB243D" mask="url(#mask-4)"></path>
        </g>
        <polyline id="Fill-17" fill="#FFFFFE" points="59.297 228.046 63.717 239.567 217.761 239.567 222.402 228.046 59.297 228.046"></polyline>
        <polyline id="Fill-18" fill="#FFFFFE" points="222.402 262.122 217.982 250.601 63.938 250.601 59.297 262.122 222.402 262.122"></polyline>
        <path d="M156.113,68.366 C156.113,74.654 149.359,79.756 141.028,79.756 C132.706,79.756 125.962,74.654 125.962,68.366 C125.962,62.077 132.706,56.974 141.028,56.974 C149.359,56.974 156.113,62.077 156.113,68.366" id="Fill-19" fill="#FFFFFE"></path>
        <path d="M148.878,41.086 C148.878,44.233 145.506,46.794 141.336,46.794 C137.165,46.794 133.783,44.233 133.783,41.086 C133.783,37.945 137.165,35.393 141.336,35.393 C145.506,35.393 148.878,37.945 148.878,41.086" id="Fill-20" fill="#FFFFFE"></path>
        <path d="M79.071,115.092 C79.071,115.577 79.13,116.067 79.168,116.567 C79.244,117.859 79.417,119.152 79.744,120.444 C79.744,120.468 96.838,195.766 100.652,212.6 L114.037,212.6 L92.773,117.48 C91.121,111.047 95.963,104.229 103.977,102.38 C103.977,102.38 104.592,102.216 105.121,102.13 C105.169,102.107 109.578,100.655 122.378,103.802 C135.666,107.055 139.049,107.055 140.163,107.055 L141.557,107.055 C142.662,107.055 146.054,107.055 159.342,103.802 C172.139,100.655 176.559,102.107 176.598,102.13 C177.136,102.216 177.75,102.38 177.75,102.38 C185.745,104.229 190.589,111.047 188.954,117.48 L167.684,212.6 L181.065,212.6 C184.882,195.766 201.966,120.468 201.966,120.444 C202.3,119.161 202.466,117.875 202.552,116.586 C202.589,116.091 202.647,115.587 202.647,115.092 C202.647,109.168 200.168,103.48 195.951,98.974 C192.336,95.125 187.465,92.147 181.729,90.628 C178.02,89.543 171.768,87.923 156.075,91.772 C144.717,94.554 141.854,94.63 141.557,94.63 L140.163,94.63 C139.863,94.63 136.993,94.554 125.645,91.772 C109.953,87.923 103.689,89.543 99.998,90.628 C94.244,92.147 89.371,95.135 85.76,98.983 C81.551,103.49 79.071,109.168 79.071,115.092" id="Fill-21" fill="#FFFFFE"></path>
        <polygon id="Fill-22" fill="#FFFFFE" points="134.32 212.643 147.398 212.643 147.398 117.235 134.32 117.235"></polygon>
        <path d="M206.299,94.774 L211.745,105.944 C216.742,103.336 217.665,103.163 217.665,103.163 C220.73,101.976 224.294,101.722 227.765,102.524 C235.768,104.384 240.936,111.148 239.284,117.576 L238.852,119.161 L203.732,212.6 L217.569,212.6 L251.295,122.985 C251.295,122.985 251.987,120.579 251.987,120.545 C255.351,107.429 245.877,93.929 230.849,90.456 C224.833,89.072 218.357,89.163 213.016,91.551 C213.016,91.551 208.612,93.42 206.299,94.774" id="Fill-23" fill="#FFFFFE"></path>
        <path d="M73.463,320.605 L60.692,320.573 C60.692,320.573 56.275,343.298 56.16,343.938 C55.514,343.925 39.087,343.888 38.191,343.888 C38.358,343.003 42.736,320.528 42.736,320.528 L29.582,320.496 L17.618,382.18 L30.792,382.218 C30.792,382.218 35.497,357.548 35.612,356.894 C36.265,356.907 52.78,356.933 53.663,356.933 C53.491,357.829 48.824,382.256 48.824,382.256 L61.998,382.308 L73.943,320.605 L73.463,320.605" id="Fill-24" fill="#FFFFFE"></path>
        <path d="M91.182,372.948013 C98.101,372.962 102.358,361.913 102.538,353.937 C102.634,349.52 100.962,344.987 95.906,344.961989 C88.538,344.949 84.543,356.479 84.371,363.794 C84.243,369.274 86.732,372.936 91.092,372.948013 L91.182,372.948013 Z M89.248,383.53604 C78.148,383.511 70.954,375.688 71.215,364.051 C71.6,347.792 82.373,334.35 97.832,334.386924 C109.554,334.426 116.108,343.093 115.865,353.872 C115.461,370.989 104.266,383.562 89.345,383.53604 L89.248,383.53604 L89.248,383.53604 Z" id="Fill-25" fill="#FFFFFE"></path>
        <path d="M116,382.538 L121.613,354.552 C122.933,347.446 123.738,339.547 124.276,335.502 L135.28,335.539 C135.031,338.702 134.686,341.89 134.263,345.257 L134.607,345.257 C137.777,338.919 142.674,334.49 148.627,334.515886 C149.51,334.515886 153.082,334.623 153.787,334.623 L148.224,348.175 C147.686,348.073 146.988,348.073 146.265,348.073 C138.199,348.061 134.109,355.831 132.304,365.076 L128.865,382.563 L116,382.538" id="Fill-26" fill="#FFFFFE"></path>
        <path d="M177.076,348.637 C177.141,346.332 175.398,344.680906 172.459,344.680906 C166.506,344.655 163.011,350.032 162.031,354.372 C171.979,354.486 176.986,353.06 177.076,348.726 L177.076,348.637 Z M182.945,380.016 C177.805,382.788 171.481,383.741 166.692,383.716478 C154.254,383.69 148.031,376.072 148.32,363.769 C148.641,349.418 158.574,334.541 174.303,334.578927 C183.094,334.605 189.283,340.007 189.072,348.752 C188.803,360.685 177.953,364.998 160.553,364.468 C160.521,365.817 160.918,367.931 161.775,369.274 C163.414,371.694 166.315,372.948 170.04,372.954 C174.758,372.962 178.777,371.835 182.287,370.004 L182.945,380.016 L182.945,380.016 Z" id="Fill-27" fill="#FFFFFE"></path>
        <path d="M256.996,345.653 C256.016,345.462 254.961,345.27 253.637,345.25695 C245.365,345.23 239.078,356.189 238.873,364.947 C238.771,369.568 240.396,372.757023 243.943,372.757023 C247.76,372.769 252.752,368.059 254.961,356.523 L256.996,345.653 Z M252.676,382.896 C252.828,380.183 253.174,376.911 253.426,373.55 L253.252,373.55 C248.988,381.335 243.322,383.922 238.271,383.908056 C230.457,383.895 225.271,377.326 225.502,367.508 C225.867,351.639 236.006,334.733 257.322,334.783885 C262.572,334.81 268.057,335.859 271.572,337.127 L266.668,361.747 C265.445,367.815 264.365,377.033 264.408,382.91 L252.676,382.896 L252.676,382.896 Z" id="Fill-28" fill="#FFFFFE"></path>
        <path d="M228.344,336.353 C226.416,335.476 223.229,334.701 219.504,334.693917 C202.994,334.656 190.875,347.689 190.492,364.435 C190.205,376.675 197.598,383.792 208.34,383.831102 C213.486,383.843 217.955,382.794 220.74,381.36 L220.893,370.875 C218.645,371.835 215.957,372.783 212.232,372.783 C207.525,372.757 203.781,369.492 203.936,362.937 C204.127,354.334 209.715,346.205 218.357,345.794 L216.674,351.518 L223.428,351.529 L224.828,346.895 C224.85,346.907 224.887,346.915 224.895,346.921 L228.344,336.353" id="Fill-29" fill="#FFFFFE"></path>
    </g>
</svg>